<?xml version="1.0" encoding="UTF-8"?>
<svg version="1.1" xmlns="http://www.w3.org/2000/svg" width="57" height="50">
<path d="M0 0 C2.64 0 5.28 0 8 0 C8 2.31 8 4.62 8 7 C10.31 7 12.62 7 15 7 C15 9.31 15 11.62 15 14 C17.31 14 19.62 14 22 14 C22 16.31 22 18.62 22 21 C24.31 21 26.62 21 29 21 C29 23.64 29 26.28 29 29 C26.69 29 24.38 29 22 29 C22 31.31 22 33.62 22 36 C19.69 36 17.38 36 15 36 C15 38.31 15 40.62 15 43 C12.69 43 10.38 43 8 43 C8 45.31 8 47.62 8 50 C5.36 50 2.72 50 0 50 C0 47.36 0 44.72 0 42 C2.31 42 4.62 42 7 42 C7 39.69 7 37.38 7 35 C9.31 35 11.62 35 14 35 C14 33.02 14 31.04 14 29 C0.14 29 -13.72 29 -28 29 C-28 26.36 -28 23.72 -28 21 C-14.14 21 -0.28 21 14 21 C14 19.02 14 17.04 14 15 C11.69 15 9.38 15 7 15 C7 12.69 7 10.38 7 8 C4.69 8 2.38 8 0 8 C0 5.36 0 2.72 0 0 Z " fill="#FFFFFF" transform="translate(28,0)"/>
</svg>
