<?xml version="1.0" encoding="UTF-8"?>
<svg version="1.1" xmlns="http://www.w3.org/2000/svg" width="57" height="50">
<path d="M0 0 C2.64 0 5.28 0 8 0 C8 2.64 8 5.28 8 8 C5.69 8 3.38 8 1 8 C1 10.31 1 12.62 1 15 C-1.31 15 -3.62 15 -6 15 C-6 16.98 -6 18.96 -6 21 C7.86 21 21.72 21 36 21 C36 23.64 36 26.28 36 29 C22.14 29 8.28 29 -6 29 C-6 30.98 -6 32.96 -6 35 C-3.69 35 -1.38 35 1 35 C1 37.31 1 39.62 1 42 C3.31 42 5.62 42 8 42 C8 44.64 8 47.28 8 50 C5.36 50 2.72 50 0 50 C0 47.69 0 45.38 0 43 C-2.31 43 -4.62 43 -7 43 C-7 40.69 -7 38.38 -7 36 C-9.31 36 -11.62 36 -14 36 C-14 33.69 -14 31.38 -14 29 C-16.31 29 -18.62 29 -21 29 C-21 26.36 -21 23.72 -21 21 C-18.69 21 -16.38 21 -14 21 C-14 18.69 -14 16.38 -14 14 C-11.69 14 -9.38 14 -7 14 C-7 11.69 -7 9.38 -7 7 C-4.69 7 -2.38 7 0 7 C0 4.69 0 2.38 0 0 Z " fill="#FFFFFF" transform="translate(21,0)"/>
</svg>
