<?xml version="1.0" encoding="UTF-8"?>
<svg version="1.1" xmlns="http://www.w3.org/2000/svg" width="17" height="17">
<path d="M0 0 C0 0.99 0 1.98 0 3 C1.32 3 2.64 3 4 3 C4.05391993 4.79133978 4.09275571 6.58313899 4.125 8.375 C4.14820313 9.37273438 4.17140625 10.37046875 4.1953125 11.3984375 C4 14 4 14 2 16 C-0.53125 16.265625 -0.53125 16.265625 -3.5 16.25 C-4.4796875 16.25515625 -5.459375 16.2603125 -6.46875 16.265625 C-9 16 -9 16 -11 14 C-11.1953125 11.3984375 -11.1953125 11.3984375 -11.125 8.375 C-11.10695313 7.37210938 -11.08890625 6.36921875 -11.0703125 5.3359375 C-11.04710937 4.56507813 -11.02390625 3.79421875 -11 3 C-9.68 3 -8.36 3 -7 3 C-7 2.01 -7 1.02 -7 0 C-4.3333581 -1.33332095 -2.83319697 -0.67102033 0 0 Z M-9 5 C-9.04241723 7.33294775 -9.04092937 9.66702567 -9 12 C-7.99530377 13.2245178 -7.99530377 13.2245178 -5.96875 13.1328125 C-5.1540625 13.13023438 -4.339375 13.12765625 -3.5 13.125 C-2.6853125 13.12757812 -1.870625 13.13015625 -1.03125 13.1328125 C0.99530377 13.2245178 0.99530377 13.2245178 2 12 C2.04092937 9.66702567 2.04241723 7.33294775 2 5 C0.02 5.99 0.02 5.99 -2 7 C-2 6.34 -2 5.68 -2 5 C-2.99 5 -3.98 5 -5 5 C-5 5.66 -5 6.32 -5 7 C-5.99 7 -6.98 7 -8 7 C-8.33 6.34 -8.66 5.68 -9 5 Z " fill="#000000" transform="translate(12,1)"/>
</svg>
